<?xml version="1.0" standalone="no"?>
<!DOCTYPE svg PUBLIC "-//W3C//DTD SVG 20010904//EN"
 "http://www.w3.org/TR/2001/REC-SVG-20010904/DTD/svg10.dtd">
<svg version="1.0" xmlns="http://www.w3.org/2000/svg"
 width="512.000000pt" height="512.000000pt" viewBox="0 0 512.000000 512.000000"
 preserveAspectRatio="xMidYMid meet">

<g transform="translate(0.000000,512.000000) scale(0.100000,-0.100000)"
fill="#000000" stroke="none">
<path d="M1555 4629 c-91 -13 -220 -56 -316 -105 -361 -186 -584 -596 -540
-993 28 -257 128 -461 314 -637 261 -248 618 -338 967 -243 187 51 386 182
512 338 487 604 149 1502 -617 1636 -94 16 -223 18 -320 4z"/>
<path d="M3517 4420 c-258 -41 -487 -202 -598 -421 l-29 -58 17 -68 c25 -96
25 -400 0 -496 -17 -67 -17 -69 4 -110 81 -159 231 -300 397 -374 136 -60 332
-80 482 -48 245 51 453 218 559 446 56 121 75 212 74 344 -4 426 -331 766
-761 789 -48 3 -113 1 -145 -4z"/>
<path d="M3237 2705 c-173 -33 -327 -104 -466 -216 l-32 -26 56 -42 c244 -185
436 -470 515 -768 42 -157 60 -371 41 -486 l-8 -47 491 0 c555 0 575 2 706 70
98 52 202 157 249 251 52 107 64 176 58 319 -13 270 -114 490 -313 681 -128
122 -267 199 -443 247 -93 25 -106 26 -436 28 -263 2 -358 0 -418 -11z"/>
<path d="M1358 2499 c-604 -74 -1062 -563 -1085 -1159 -6 -157 7 -223 65 -334
70 -134 187 -233 337 -284 l80 -27 950 0 950 0 70 22 c186 59 337 208 397 393
17 52 21 90 21 190 -1 312 -126 611 -352 840 -174 177 -390 293 -641 346 -90
19 -667 28 -792 13z"/>
</g>
</svg>
