<?xml version="1.0" standalone="no"?>
<!DOCTYPE svg PUBLIC "-//W3C//DTD SVG 20010904//EN"
 "http://www.w3.org/TR/2001/REC-SVG-20010904/DTD/svg10.dtd">
<svg version="1.0" xmlns="http://www.w3.org/2000/svg"
 width="512.000000pt" height="512.000000pt" viewBox="0 0 512.000000 512.000000"
 preserveAspectRatio="xMidYMid meet">

<g transform="translate(0.000000,512.000000) scale(0.100000,-0.100000)"
fill="#000000" stroke="none">
<path d="M800 5106 c-312 -59 -562 -246 -700 -524 -44 -91 -66 -157 -86 -267
-21 -120 -21 -3390 0 -3510 39 -213 131 -389 278 -531 147 -142 306 -222 513
-260 120 -21 3390 -21 3510 0 213 39 389 131 531 278 142 147 222 306 260 513
21 120 21 3390 0 3510 -28 150 -83 288 -163 399 -116 163 -310 305 -493 361
-153 46 -112 45 -1900 44 -1273 -1 -1701 -4 -1750 -13z m1407 -1738 l353 -353
353 353 c372 372 374 373 452 364 42 -5 340 -300 359 -356 27 -80 28 -79 -356
-463 l-353 -353 353 -353 c384 -384 383 -383 356 -463 -19 -56 -317 -351 -359
-356 -78 -9 -80 -8 -452 364 l-353 353 -353 -353 c-384 -384 -383 -383 -463
-356 -53 18 -330 295 -348 348 -27 80 -28 79 356 463 l353 353 -353 353 c-384
384 -383 383 -356 463 19 56 317 351 359 356 78 9 80 8 452 -364z"/>
</g>
</svg>
