<?xml version="1.0" standalone="no"?>
<!DOCTYPE svg PUBLIC "-//W3C//DTD SVG 20010904//EN"
 "http://www.w3.org/TR/2001/REC-SVG-20010904/DTD/svg10.dtd">
<svg version="1.0" xmlns="http://www.w3.org/2000/svg"
 width="512.000000pt" height="512.000000pt" viewBox="0 0 512.000000 512.000000"
 preserveAspectRatio="xMidYMid meet">

<g transform="translate(0.000000,512.000000) scale(0.100000,-0.100000)"
fill="#000000" stroke="none">
<path d="M2330 5105 c-863 -106 -1541 -781 -1656 -1648 -21 -160 -14 -409 16
-552 111 -527 419 -1116 963 -1844 235 -314 568 -709 794 -941 l112 -115 66
65 c209 204 618 687 872 1030 556 749 875 1391 948 1903 48 335 -16 715 -175
1042 -355 732 -1135 1159 -1940 1060z m342 -846 c232 -48 418 -279 418 -519 0
-235 -179 -464 -403 -515 l-52 -12 85 -8 c325 -29 580 -210 695 -492 44 -108
55 -196 55 -423 l0 -210 -915 0 -915 0 0 203 c0 250 17 343 84 480 127 259
362 415 666 442 l85 8 -52 13 c-350 90 -509 506 -309 807 121 181 342 271 558
226z"/>
<path d="M2451 3944 c-168 -84 -168 -324 0 -408 123 -61 258 -15 315 109 31
64 31 126 0 190 -57 124 -192 170 -315 109z"/>
<path d="M2360 2899 c-154 -23 -297 -125 -366 -260 -29 -58 -54 -157 -54 -216
l0 -43 615 0 615 0 0 53 c0 225 -186 435 -415 467 -82 11 -316 11 -395 -1z"/>
</g>
</svg>
